# xmcd CD database file
#
# Track frame offsets:
#	150
#	32337
#	67170
#	103553
#	140056
#	181594
#	214402
#
# Disc length: 3311 seconds
#
# Revision: 0
# Processed by: cddbd v1.5.2PL0 Copyright (c) Steve Scherf et al.
# Submitted via: CDex 1.70beta2
#
DISCID=620ced07
DTITLE=Ensemble Denada and Torun Eriksen - Live in Bremen
DYEAR=2017
DGENRE=Jazz
TTITLE0=Compromise
TTITLE1=Edgar's Blues
TTITLE2=Take My Time
TTITLE3=More
TTITLE4=I've Been Thinking
TTITLE5=Winter Today
TTITLE6=Downhill
EXTD=YEAR: 2017
EXTT0=
EXTT1=
EXTT2=
EXTT3=
EXTT4=
EXTT5=
EXTT6=
PLAYORDER=
